<?xml version="1.0" encoding="UTF-8" standalone="no"?>
<!DOCTYPE svg PUBLIC "-//W3C//DTD SVG 1.1//EN"
 "http://www.w3.org/Graphics/SVG/1.1/DTD/svg11.dtd">
<!-- Generated by graphviz version 14.1.3 (20260303.0454)
 -->
<!-- Title: Matrix::Matrix Pages: 1 -->
<svg width="312pt" height="138pt"
 viewBox="0.00 0.00 312.00 138.00" xmlns="http://www.w3.org/2000/svg" xmlns:xlink="http://www.w3.org/1999/xlink">

<svg id="main" version="1.1" xmlns="http://www.w3.org/2000/svg" xmlns:xlink="http://www.w3.org/1999/xlink" xml:space="preserve">

<style type="text/css"><![CDATA[
.node, .edge {opacity: 0.7;}
.node.selected, .edge.selected {opacity: 1;}
.edge:hover path { stroke: red; }
.edge:hover polygon { stroke: red; fill: red; }
]]></style>
<script type="application/ecmascript" xlink:href="svg.min.js"/>
<svg id="graph" class="graph">
<g id="graph0" class="graph" transform="scale(1 1) rotate(0) translate(4 134.25)">
<title>Matrix::Matrix</title>
<!-- Node1 -->
<g id="Node000001" class="node">
<title>Node1</title>
<g id="a_Node000001"><a xlink:title="Builds an size x size matrix.">
<polygon fill="#999999" stroke="#666666" points="303.75,-74.25 227.75,-74.25 227.75,-55 303.75,-55 303.75,-74.25"/>
<text xml:space="preserve" text-anchor="middle" x="265.75" y="-60.75" font-family="Helvetica,sans-Serif" font-size="10.00">Matrix::Matrix</text>
</a>
</g>
</g>
<!-- Node2 -->
<g id="Node000002" class="node">
<title>Node2</title>
<g id="a_Node000002"><a xlink:href="class_matrix.html#a1f6a78ba678809111d241e7caba4e28d" target="_top" xlink:title="Copies all elements from another matrix inside a parallel region.">
<polygon fill="white" stroke="#666666" points="191.75,-130.25 73,-130.25 73,-111 191.75,-111 191.75,-130.25"/>
<text xml:space="preserve" text-anchor="middle" x="132.38" y="-116.75" font-family="Helvetica,sans-Serif" font-size="10.00">Matrix::copy_in_parallel</text>
</a>
</g>
</g>
<!-- Node1&#45;&gt;Node2 -->
<g id="edge1_Node000001_Node000002" class="edge">
<title>Node1&#45;&gt;Node2</title>
<g id="a_edge1_Node000001_Node000002"><a xlink:title=" ">
<path fill="none" stroke="#63b8ff" d="M238.1,-79.98C224.51,-87.43 207.55,-96.14 191.75,-102.62 184.69,-105.52 176.98,-108.22 169.55,-110.59"/>
<polygon fill="#63b8ff" stroke="#63b8ff" points="239.42,-83.25 246.44,-75.33 236,-77.14 239.42,-83.25"/>
</a>
</g>
</g>
<!-- Node4 -->
<g id="Node000004" class="node">
<title>Node4</title>
<g id="a_Node000004"><a xlink:href="class_matrix.html#a0b9cfa2302a0273afb1b26e501f93abc" target="_top" xlink:title="Copy constructor.">
<polygon fill="white" stroke="#666666" points="170.38,-93.25 94.38,-93.25 94.38,-74 170.38,-74 170.38,-93.25"/>
<text xml:space="preserve" text-anchor="middle" x="132.38" y="-79.75" font-family="Helvetica,sans-Serif" font-size="10.00">Matrix::Matrix</text>
</a>
</g>
</g>
<!-- Node1&#45;&gt;Node4 -->
<g id="edge3_Node000001_Node000004" class="edge">
<title>Node1&#45;&gt;Node4</title>
<g id="a_edge3_Node000001_Node000004"><a xlink:title=" ">
<path fill="none" stroke="#63b8ff" d="M216.27,-71.64C201.24,-73.81 184.92,-76.17 170.76,-78.22"/>
<polygon fill="#63b8ff" stroke="#63b8ff" points="216.56,-75.13 225.96,-70.24 215.56,-68.2 216.56,-75.13"/>
</a>
</g>
</g>
<!-- Node5 -->
<g id="Node000005" class="node">
<title>Node5</title>
<g id="a_Node000005"><a xlink:href="class_matrix.html#a2dc940ea1c822a490cdc29d642c28e3a" target="_top" xlink:title="Stream output of matrix values row by row.">
<polygon fill="white" stroke="#666666" points="180.5,-56.25 84.25,-56.25 84.25,-37 180.5,-37 180.5,-56.25"/>
<text xml:space="preserve" text-anchor="middle" x="132.38" y="-42.75" font-family="Helvetica,sans-Serif" font-size="10.00">Matrix::operator&lt;&lt;</text>
</a>
</g>
</g>
<!-- Node1&#45;&gt;Node5 -->
<g id="edge4_Node000001_Node000005" class="edge">
<title>Node1&#45;&gt;Node5</title>
<g id="a_edge4_Node000001_Node000005"><a xlink:title=" ">
<path fill="none" stroke="#63b8ff" d="M216.16,-57.97C204.55,-56.38 192.17,-54.68 180.62,-53.1"/>
<polygon fill="#63b8ff" stroke="#63b8ff" points="215.57,-61.42 225.96,-59.31 216.52,-54.48 215.57,-61.42"/>
</a>
</g>
</g>
<!-- Node6 -->
<g id="Node000006" class="node">
<title>Node6</title>
<g id="a_Node000006"><a xlink:href="class_matrix.html#ae3695797299c70849667c22a098db137" target="_top" xlink:title="Assignment with size consistency check.">
<polygon fill="white" stroke="#666666" points="177.5,-19.25 87.25,-19.25 87.25,0 177.5,0 177.5,-19.25"/>
<text xml:space="preserve" text-anchor="middle" x="132.38" y="-5.75" font-family="Helvetica,sans-Serif" font-size="10.00">Matrix::operator=</text>
</a>
</g>
</g>
<!-- Node1&#45;&gt;Node6 -->
<g id="edge5_Node000001_Node000006" class="edge">
<title>Node1&#45;&gt;Node6</title>
<g id="a_edge5_Node000001_Node000006"><a xlink:title=" ">
<path fill="none" stroke="#63b8ff" d="M237.11,-49.22C223.67,-42.09 207.13,-33.84 191.75,-27.62 184.67,-24.76 176.96,-22.09 169.52,-19.72"/>
<polygon fill="#63b8ff" stroke="#63b8ff" points="235.35,-52.24 245.81,-53.91 238.68,-46.08 235.35,-52.24"/>
</a>
</g>
</g>
<!-- Node3 -->
<g id="Node000003" class="node">
<title>Node3</title>
<g id="a_Node000003"><a xlink:href="par__main_8cc.html#ac762d48b889bd832ec0d42abcbc50624" target="_top" xlink:title="Runs the parallel benchmark and writes outputs/timings to disk.">
<polygon fill="white" stroke="#666666" points="37,-130.25 0,-130.25 0,-111 37,-111 37,-130.25"/>
<text xml:space="preserve" text-anchor="middle" x="18.5" y="-116.75" font-family="Helvetica,sans-Serif" font-size="10.00">main</text>
</a>
</g>
</g>
<!-- Node2&#45;&gt;Node3 -->
<g id="edge2_Node000002_Node000003" class="edge">
<title>Node2&#45;&gt;Node3</title>
<g id="a_edge2_Node000002_Node000003"><a xlink:title=" ">
<path fill="none" stroke="#63b8ff" d="M61.45,-120.62C52.63,-120.62 44.3,-120.62 37.43,-120.62"/>
<polygon fill="#63b8ff" stroke="#63b8ff" points="61.3,-124.13 71.3,-120.63 61.3,-117.13 61.3,-124.13"/>
</a>
</g>
</g>
</g>
</svg>
</svg>

<style type='text/css'>
<![CDATA[
[data-mouse-over-selected='false'] { opacity: 0.7; }
[data-mouse-over-selected='true']  { opacity: 1.0; }
]]>
</style>
<script type="application/ecmascript"><![CDATA[
document.addEventListener('DOMContentLoaded', (event) => {
  highlightEdges();
  highlightAdjacentNodes();
});
]]></script>
</svg>
