<?xml version="1.0" encoding="UTF-8" standalone="no"?>
<!DOCTYPE svg PUBLIC "-//W3C//DTD SVG 1.1//EN"
 "http://www.w3.org/Graphics/SVG/1.1/DTD/svg11.dtd">
<!-- Generated by graphviz version 14.1.3 (20260303.0454)
 -->
<!-- Title: workflow Pages: 1 -->
<svg width="184pt" height="659pt"
 viewBox="0.00 0.00 184.00 659.00" xmlns="http://www.w3.org/2000/svg" xmlns:xlink="http://www.w3.org/1999/xlink">
<g id="graph0" class="graph" transform="scale(1 1) rotate(0) translate(4 655)">
<title>workflow</title>
<polygon fill="white" stroke="none" points="-4,4 -4,-655 179.88,-655 179.88,4 -4,4"/>
<!-- Start -->
<g id="node1" class="node">
<title>Start</title>
<path fill="none" stroke="black" d="M120.25,-651C120.25,-651 90.25,-651 90.25,-651 84.25,-651 78.25,-645 78.25,-639 78.25,-639 78.25,-627 78.25,-627 78.25,-621 84.25,-615 90.25,-615 90.25,-615 120.25,-615 120.25,-615 126.25,-615 132.25,-621 132.25,-627 132.25,-627 132.25,-639 132.25,-639 132.25,-645 126.25,-651 120.25,-651"/>
<text xml:space="preserve" text-anchor="middle" x="105.25" y="-627.95" font-family="Times,serif" font-size="14.00">Start</text>
</g>
<!-- Init matrix and params -->
<g id="node2" class="node">
<title>Init matrix and params</title>
<path fill="none" stroke="black" d="M163.88,-578C163.88,-578 46.62,-578 46.62,-578 40.62,-578 34.62,-572 34.62,-566 34.62,-566 34.62,-554 34.62,-554 34.62,-548 40.62,-542 46.62,-542 46.62,-542 163.88,-542 163.88,-542 169.88,-542 175.88,-548 175.88,-554 175.88,-554 175.88,-566 175.88,-566 175.88,-572 169.88,-578 163.88,-578"/>
<text xml:space="preserve" text-anchor="middle" x="105.25" y="-554.95" font-family="Times,serif" font-size="14.00">Init matrix and params</text>
</g>
<!-- Start&#45;&gt;Init matrix and params -->
<g id="edge1" class="edge">
<title>Start&#45;&gt;Init matrix and params</title>
<path fill="none" stroke="black" d="M105.25,-614.81C105.25,-607.23 105.25,-598.1 105.25,-589.54"/>
<polygon fill="black" stroke="black" points="108.75,-589.54 105.25,-579.54 101.75,-589.54 108.75,-589.54"/>
</g>
<!-- Copy to temp -->
<g id="node3" class="node">
<title>Copy to temp</title>
<path fill="none" stroke="black" d="M138.75,-505C138.75,-505 71.75,-505 71.75,-505 65.75,-505 59.75,-499 59.75,-493 59.75,-493 59.75,-481 59.75,-481 59.75,-475 65.75,-469 71.75,-469 71.75,-469 138.75,-469 138.75,-469 144.75,-469 150.75,-475 150.75,-481 150.75,-481 150.75,-493 150.75,-493 150.75,-499 144.75,-505 138.75,-505"/>
<text xml:space="preserve" text-anchor="middle" x="105.25" y="-481.95" font-family="Times,serif" font-size="14.00">Copy to temp</text>
</g>
<!-- Init matrix and params&#45;&gt;Copy to temp -->
<g id="edge2" class="edge">
<title>Init matrix and params&#45;&gt;Copy to temp</title>
<path fill="none" stroke="black" d="M105.25,-541.81C105.25,-534.23 105.25,-525.1 105.25,-516.54"/>
<polygon fill="black" stroke="black" points="108.75,-516.54 105.25,-506.54 101.75,-516.54 108.75,-516.54"/>
</g>
<!-- Update interior -->
<g id="node4" class="node">
<title>Update interior</title>
<path fill="none" stroke="black" d="M102.5,-432C102.5,-432 28,-432 28,-432 22,-432 16,-426 16,-420 16,-420 16,-408 16,-408 16,-402 22,-396 28,-396 28,-396 102.5,-396 102.5,-396 108.5,-396 114.5,-402 114.5,-408 114.5,-408 114.5,-420 114.5,-420 114.5,-426 108.5,-432 102.5,-432"/>
<text xml:space="preserve" text-anchor="middle" x="65.25" y="-408.95" font-family="Times,serif" font-size="14.00">Update interior</text>
</g>
<!-- Copy to temp&#45;&gt;Update interior -->
<g id="edge3" class="edge">
<title>Copy to temp&#45;&gt;Update interior</title>
<path fill="none" stroke="black" d="M95.57,-468.81C91,-460.7 85.44,-450.84 80.34,-441.78"/>
<polygon fill="black" stroke="black" points="83.54,-440.34 75.59,-433.35 77.45,-443.78 83.54,-440.34"/>
</g>
<!-- Reset heat sources -->
<g id="node5" class="node">
<title>Reset heat sources</title>
<path fill="none" stroke="black" d="M104.5,-359C104.5,-359 12,-359 12,-359 6,-359 0,-353 0,-347 0,-347 0,-335 0,-335 0,-329 6,-323 12,-323 12,-323 104.5,-323 104.5,-323 110.5,-323 116.5,-329 116.5,-335 116.5,-335 116.5,-347 116.5,-347 116.5,-353 110.5,-359 104.5,-359"/>
<text xml:space="preserve" text-anchor="middle" x="58.25" y="-335.95" font-family="Times,serif" font-size="14.00">Reset heat sources</text>
</g>
<!-- Update interior&#45;&gt;Reset heat sources -->
<g id="edge4" class="edge">
<title>Update interior&#45;&gt;Reset heat sources</title>
<path fill="none" stroke="black" d="M63.56,-395.81C62.8,-388.14 61.89,-378.89 61.03,-370.24"/>
<polygon fill="black" stroke="black" points="64.54,-370.14 60.08,-360.54 57.58,-370.83 64.54,-370.14"/>
</g>
<!-- Update borders -->
<g id="node6" class="node">
<title>Update borders</title>
<path fill="none" stroke="black" d="M101.88,-270.5C101.88,-270.5 26.62,-270.5 26.62,-270.5 20.62,-270.5 14.62,-264.5 14.62,-258.5 14.62,-258.5 14.62,-246.5 14.62,-246.5 14.62,-240.5 20.62,-234.5 26.62,-234.5 26.62,-234.5 101.88,-234.5 101.88,-234.5 107.88,-234.5 113.88,-240.5 113.88,-246.5 113.88,-246.5 113.88,-258.5 113.88,-258.5 113.88,-264.5 107.88,-270.5 101.88,-270.5"/>
<text xml:space="preserve" text-anchor="middle" x="64.25" y="-247.45" font-family="Times,serif" font-size="14.00">Update borders</text>
</g>
<!-- Reset heat sources&#45;&gt;Update borders -->
<g id="edge5" class="edge">
<title>Reset heat sources&#45;&gt;Update borders</title>
<path fill="none" stroke="black" d="M59.44,-322.91C60.24,-311.26 61.33,-295.55 62.27,-282.02"/>
<polygon fill="black" stroke="black" points="65.74,-282.58 62.94,-272.36 58.76,-282.09 65.74,-282.58"/>
</g>
<!-- Compute diff -->
<g id="node7" class="node">
<title>Compute diff</title>
<path fill="none" stroke="black" d="M102,-197.5C102,-197.5 36.5,-197.5 36.5,-197.5 30.5,-197.5 24.5,-191.5 24.5,-185.5 24.5,-185.5 24.5,-173.5 24.5,-173.5 24.5,-167.5 30.5,-161.5 36.5,-161.5 36.5,-161.5 102,-161.5 102,-161.5 108,-161.5 114,-167.5 114,-173.5 114,-173.5 114,-185.5 114,-185.5 114,-191.5 108,-197.5 102,-197.5"/>
<text xml:space="preserve" text-anchor="middle" x="69.25" y="-174.45" font-family="Times,serif" font-size="14.00">Compute diff</text>
</g>
<!-- Update borders&#45;&gt;Compute diff -->
<g id="edge6" class="edge">
<title>Update borders&#45;&gt;Compute diff</title>
<path fill="none" stroke="black" d="M65.46,-234.31C66,-226.64 66.65,-217.39 67.26,-208.74"/>
<polygon fill="black" stroke="black" points="70.73,-209.26 67.94,-199.04 63.75,-208.77 70.73,-209.26"/>
</g>
<!-- Stop condition? -->
<g id="node8" class="node">
<title>Stop condition?</title>
<path fill="none" stroke="black" d="M145,-124.5C145,-124.5 67.5,-124.5 67.5,-124.5 61.5,-124.5 55.5,-118.5 55.5,-112.5 55.5,-112.5 55.5,-100.5 55.5,-100.5 55.5,-94.5 61.5,-88.5 67.5,-88.5 67.5,-88.5 145,-88.5 145,-88.5 151,-88.5 157,-94.5 157,-100.5 157,-100.5 157,-112.5 157,-112.5 157,-118.5 151,-124.5 145,-124.5"/>
<text xml:space="preserve" text-anchor="middle" x="106.25" y="-101.45" font-family="Times,serif" font-size="14.00">Stop condition?</text>
</g>
<!-- Compute diff&#45;&gt;Stop condition? -->
<g id="edge7" class="edge">
<title>Compute diff&#45;&gt;Stop condition?</title>
<path fill="none" stroke="black" d="M78.21,-161.31C82.39,-153.29 87.46,-143.55 92.14,-134.57"/>
<polygon fill="black" stroke="black" points="95.16,-136.36 96.68,-125.87 88.95,-133.12 95.16,-136.36"/>
</g>
<!-- Stop condition?&#45;&gt;Copy to temp -->
<g id="edge9" class="edge">
<title>Stop condition?&#45;&gt;Copy to temp</title>
<path fill="none" stroke="black" d="M121.71,-124.82C132.23,-138.42 144.25,-158.37 144.25,-178.5 144.25,-415 144.25,-415 144.25,-415 144.25,-431.14 136.41,-447.07 127.77,-459.75"/>
<polygon fill="black" stroke="black" points="125.14,-457.41 122.01,-467.53 130.77,-461.57 125.14,-457.41"/>
<text xml:space="preserve" text-anchor="middle" x="151" y="-291.7" font-family="Times,serif" font-size="14.00">no</text>
</g>
<!-- Write outputs/timings -->
<g id="node9" class="node">
<title>Write outputs/timings</title>
<path fill="none" stroke="black" d="M161.88,-36C161.88,-36 50.62,-36 50.62,-36 44.62,-36 38.62,-30 38.62,-24 38.62,-24 38.62,-12 38.62,-12 38.62,-6 44.62,0 50.62,0 50.62,0 161.88,0 161.88,0 167.88,0 173.88,-6 173.88,-12 173.88,-12 173.88,-24 173.88,-24 173.88,-30 167.88,-36 161.88,-36"/>
<text xml:space="preserve" text-anchor="middle" x="106.25" y="-12.95" font-family="Times,serif" font-size="14.00">Write outputs/timings</text>
</g>
<!-- Stop condition?&#45;&gt;Write outputs/timings -->
<g id="edge8" class="edge">
<title>Stop condition?&#45;&gt;Write outputs/timings</title>
<path fill="none" stroke="black" d="M106.25,-88.41C106.25,-76.76 106.25,-61.05 106.25,-47.52"/>
<polygon fill="black" stroke="black" points="109.75,-47.86 106.25,-37.86 102.75,-47.86 109.75,-47.86"/>
<text xml:space="preserve" text-anchor="middle" x="115.25" y="-57.2" font-family="Times,serif" font-size="14.00">yes</text>
</g>
</g>
</svg>
