<?xml version="1.0" encoding="UTF-8" standalone="no"?>
<!DOCTYPE svg PUBLIC "-//W3C//DTD SVG 1.1//EN"
 "http://www.w3.org/Graphics/SVG/1.1/DTD/svg11.dtd">
<!-- Generated by graphviz version 14.1.3 (20260303.0454)
 -->
<!-- Title: dependencies Pages: 1 -->
<svg width="365pt" height="258pt"
 viewBox="0.00 0.00 365.00 258.00" xmlns="http://www.w3.org/2000/svg" xmlns:xlink="http://www.w3.org/1999/xlink">

<svg id="main" version="1.1" xmlns="http://www.w3.org/2000/svg" xmlns:xlink="http://www.w3.org/1999/xlink" xml:space="preserve">

<style type="text/css"><![CDATA[
.node, .edge {opacity: 0.7;}
.node.selected, .edge.selected {opacity: 1;}
.edge:hover path { stroke: red; }
.edge:hover polygon { stroke: red; fill: red; }
]]></style>
<script type="application/ecmascript" xlink:href="svg.min.js"/>
<svg id="graph" class="graph">
<g id="graph0" class="graph" transform="scale(1 1) rotate(0) translate(4 254)">
<title>dependencies</title>
<polygon fill="white" stroke="none" points="-4,4 -4,-254 360.75,-254 360.75,4 -4,4"/>
<!-- seq_main.cc -->
<g id="node1" class="node">
<title>seq_main.cc</title>
<path fill="none" stroke="black" d="M72.25,-250C72.25,-250 12,-250 12,-250 6,-250 0,-244 0,-238 0,-238 0,-226 0,-226 0,-220 6,-214 12,-214 12,-214 72.25,-214 72.25,-214 78.25,-214 84.25,-220 84.25,-226 84.25,-226 84.25,-238 84.25,-238 84.25,-244 78.25,-250 72.25,-250"/>
<text xml:space="preserve" text-anchor="middle" x="42.12" y="-226.95" font-family="Times,serif" font-size="14.00">seq_main.cc</text>
</g>
<!-- matrix.hh -->
<g id="node2" class="node">
<title>matrix.hh</title>
<path fill="none" stroke="black" d="M193.12,-143C193.12,-143 147.88,-143 147.88,-143 141.88,-143 135.88,-137 135.88,-131 135.88,-131 135.88,-119 135.88,-119 135.88,-113 141.88,-107 147.88,-107 147.88,-107 193.12,-107 193.12,-107 199.12,-107 205.12,-113 205.12,-119 205.12,-119 205.12,-131 205.12,-131 205.12,-137 199.12,-143 193.12,-143"/>
<text xml:space="preserve" text-anchor="middle" x="170.5" y="-119.95" font-family="Times,serif" font-size="14.00">matrix.hh</text>
</g>
<!-- seq_main.cc&#45;&gt;matrix.hh -->
<g id="edge1" class="edge">
<title>seq_main.cc&#45;&gt;matrix.hh</title>
<path fill="none" stroke="black" d="M72.33,-213.73C76.41,-210.92 80.49,-207.96 84.25,-205 105.29,-188.42 127.3,-167.67 143.68,-151.46"/>
<polygon fill="black" stroke="black" points="146.03,-154.06 150.63,-144.51 141.08,-149.11 146.03,-154.06"/>
</g>
<!-- std_libraries.hh -->
<g id="node6" class="node">
<title>std_libraries.hh</title>
<path fill="none" stroke="black" d="M344.75,-116C344.75,-116 268.75,-116 268.75,-116 262.75,-116 256.75,-110 256.75,-104 256.75,-104 256.75,-92 256.75,-92 256.75,-86 262.75,-80 268.75,-80 268.75,-80 344.75,-80 344.75,-80 350.75,-80 356.75,-86 356.75,-92 356.75,-92 356.75,-104 356.75,-104 356.75,-110 350.75,-116 344.75,-116"/>
<text xml:space="preserve" text-anchor="middle" x="306.75" y="-92.95" font-family="Times,serif" font-size="14.00">std_libraries.hh</text>
</g>
<!-- seq_main.cc&#45;&gt;std_libraries.hh -->
<g id="edge7" class="edge">
<title>seq_main.cc&#45;&gt;std_libraries.hh</title>
<path fill="none" stroke="black" stroke-dasharray="5,2" d="M84.57,-215.11C120.86,-199.88 174.68,-176.22 219.75,-152 236.31,-143.1 254,-132.25 269,-122.61"/>
<polygon fill="black" stroke="black" points="270.68,-125.69 277.16,-117.31 266.87,-119.82 270.68,-125.69"/>
<text xml:space="preserve" text-anchor="middle" x="170.5" y="-202.09" font-family="Times,serif" font-size="14.00">via matrix.hh</text>
</g>
<!-- matrix.hh&#45;&gt;std_libraries.hh -->
<g id="edge5" class="edge">
<title>matrix.hh&#45;&gt;std_libraries.hh</title>
<path fill="none" stroke="black" d="M205.38,-118.19C217.57,-115.73 231.73,-112.89 245.5,-110.12"/>
<polygon fill="black" stroke="black" points="245.81,-113.62 254.93,-108.22 244.43,-106.76 245.81,-113.62"/>
</g>
<!-- par_main.cc -->
<g id="node3" class="node">
<title>par_main.cc</title>
<path fill="none" stroke="black" d="M71.88,-88C71.88,-88 12.38,-88 12.38,-88 6.38,-88 0.38,-82 0.38,-76 0.38,-76 0.38,-64 0.38,-64 0.38,-58 6.38,-52 12.38,-52 12.38,-52 71.88,-52 71.88,-52 77.88,-52 83.88,-58 83.88,-64 83.88,-64 83.88,-76 83.88,-76 83.88,-82 77.88,-88 71.88,-88"/>
<text xml:space="preserve" text-anchor="middle" x="42.12" y="-64.95" font-family="Times,serif" font-size="14.00">par_main.cc</text>
</g>
<!-- par_main.cc&#45;&gt;matrix.hh -->
<g id="edge2" class="edge">
<title>par_main.cc&#45;&gt;matrix.hh</title>
<path fill="none" stroke="black" d="M84.16,-87.86C97.24,-93.55 111.77,-99.87 125.07,-105.67"/>
<polygon fill="black" stroke="black" points="123.48,-108.79 134.05,-109.57 126.27,-102.37 123.48,-108.79"/>
</g>
<!-- par_main.cc&#45;&gt;std_libraries.hh -->
<g id="edge8" class="edge">
<title>par_main.cc&#45;&gt;std_libraries.hh</title>
<path fill="none" stroke="black" stroke-dasharray="5,2" d="M84.31,-71.23C120.19,-72.65 173.57,-75.59 219.75,-81.5 228.03,-82.56 236.72,-83.92 245.26,-85.41"/>
<polygon fill="black" stroke="black" points="244.4,-88.82 254.86,-87.16 245.65,-81.93 244.4,-88.82"/>
<text xml:space="preserve" text-anchor="middle" x="170.5" y="-84.7" font-family="Times,serif" font-size="14.00">via matrix.hh</text>
</g>
<!-- size.cc -->
<g id="node4" class="node">
<title>size.cc</title>
<path fill="none" stroke="black" d="M57.12,-196C57.12,-196 27.12,-196 27.12,-196 21.13,-196 15.12,-190 15.12,-184 15.12,-184 15.12,-172 15.12,-172 15.12,-166 21.12,-160 27.12,-160 27.12,-160 57.12,-160 57.12,-160 63.12,-160 69.12,-166 69.12,-172 69.12,-172 69.12,-184 69.12,-184 69.12,-190 63.12,-196 57.12,-196"/>
<text xml:space="preserve" text-anchor="middle" x="42.12" y="-172.95" font-family="Times,serif" font-size="14.00">size.cc</text>
</g>
<!-- size.cc&#45;&gt;matrix.hh -->
<g id="edge3" class="edge">
<title>size.cc&#45;&gt;matrix.hh</title>
<path fill="none" stroke="black" d="M69.62,-166.89C85.71,-160.14 106.67,-151.35 125.22,-143.57"/>
<polygon fill="black" stroke="black" points="126.55,-146.81 134.42,-139.71 123.85,-140.35 126.55,-146.81"/>
</g>
<!-- matrix.cc -->
<g id="node5" class="node">
<title>matrix.cc</title>
<path fill="none" stroke="black" d="M64,-142C64,-142 20.25,-142 20.25,-142 14.25,-142 8.25,-136 8.25,-130 8.25,-130 8.25,-118 8.25,-118 8.25,-112 14.25,-106 20.25,-106 20.25,-106 64,-106 64,-106 70,-106 76,-112 76,-118 76,-118 76,-130 76,-130 76,-136 70,-142 64,-142"/>
<text xml:space="preserve" text-anchor="middle" x="42.12" y="-118.95" font-family="Times,serif" font-size="14.00">matrix.cc</text>
</g>
<!-- matrix.cc&#45;&gt;matrix.hh -->
<g id="edge4" class="edge">
<title>matrix.cc&#45;&gt;matrix.hh</title>
<path fill="none" stroke="black" d="M76.33,-124.26C91.04,-124.38 108.58,-124.52 124.44,-124.64"/>
<polygon fill="black" stroke="black" points="124.1,-128.14 134.13,-124.72 124.15,-121.14 124.1,-128.14"/>
</g>
<!-- std_libraries.cc -->
<g id="node7" class="node">
<title>std_libraries.cc</title>
<path fill="none" stroke="black" d="M207.75,-36C207.75,-36 133.25,-36 133.25,-36 127.25,-36 121.25,-30 121.25,-24 121.25,-24 121.25,-12 121.25,-12 121.25,-6 127.25,0 133.25,0 133.25,0 207.75,0 207.75,0 213.75,0 219.75,-6 219.75,-12 219.75,-12 219.75,-24 219.75,-24 219.75,-30 213.75,-36 207.75,-36"/>
<text xml:space="preserve" text-anchor="middle" x="170.5" y="-12.95" font-family="Times,serif" font-size="14.00">std_libraries.cc</text>
</g>
<!-- std_libraries.cc&#45;&gt;std_libraries.hh -->
<g id="edge6" class="edge">
<title>std_libraries.cc&#45;&gt;std_libraries.hh</title>
<path fill="none" stroke="black" d="M202.31,-36.31C213.75,-43.12 226.85,-50.91 238.75,-58 247.37,-63.14 256.62,-68.66 265.41,-73.9"/>
<polygon fill="black" stroke="black" points="263.39,-76.77 273.77,-78.89 266.98,-70.76 263.39,-76.77"/>
</g>
</g>
</svg>
</svg>

<style type='text/css'>
<![CDATA[
[data-mouse-over-selected='false'] { opacity: 0.7; }
[data-mouse-over-selected='true']  { opacity: 1.0; }
]]>
</style>
<script type="application/ecmascript"><![CDATA[
document.addEventListener('DOMContentLoaded', (event) => {
  highlightEdges();
  highlightAdjacentNodes();
});
]]></script>
</svg>
