<?xml version="1.0" encoding="UTF-8" standalone="no"?>
<!DOCTYPE svg PUBLIC "-//W3C//DTD SVG 1.1//EN"
 "http://www.w3.org/Graphics/SVG/1.1/DTD/svg11.dtd">
<!-- Generated by graphviz version 14.1.3 (20260303.0454)
 -->
<!-- Title: matrix.hh Pages: 1 -->
<svg width="433pt" height="138pt"
 viewBox="0.00 0.00 433.00 138.00" xmlns="http://www.w3.org/2000/svg" xmlns:xlink="http://www.w3.org/1999/xlink">
<g id="graph0" class="graph" transform="scale(1 1) rotate(0) translate(4 133.75)">
<title>matrix.hh</title>
<!-- Node1 -->
<g id="Node000001" class="node">
<title>Node1</title>
<g id="a_Node000001"><a xlink:title="Matrix data structure and low&#45;level operations for the heat diffusion solver.">
<polygon fill="#999999" stroke="#666666" points="247.75,-129.75 191.25,-129.75 191.25,-110.5 247.75,-110.5 247.75,-129.75"/>
<text xml:space="preserve" text-anchor="middle" x="219.5" y="-116.25" font-family="Helvetica,sans-Serif" font-size="10.00">matrix.hh</text>
</a>
</g>
</g>
<!-- Node2 -->
<g id="Node000002" class="node">
<title>Node2</title>
<g id="a_Node000002"><a xlink:href="std__libraries_8hh.html" target="_top" xlink:title="Shared includes and numeric/statistics helpers for benchmarking.">
<polygon fill="white" stroke="#666666" points="260.5,-74.5 178.5,-74.5 178.5,-55.25 260.5,-55.25 260.5,-74.5"/>
<text xml:space="preserve" text-anchor="middle" x="219.5" y="-61" font-family="Helvetica,sans-Serif" font-size="10.00">std_libraries.hh</text>
</a>
</g>
</g>
<!-- Node1&#45;&gt;Node2 -->
<g id="edge1_Node000001_Node000002" class="edge">
<title>Node1&#45;&gt;Node2</title>
<g id="a_edge1_Node000001_Node000002"><a xlink:title=" ">
<path fill="none" stroke="#63b8ff" d="M219.5,-110.33C219.5,-103.82 219.5,-94.67 219.5,-86.37"/>
<polygon fill="#63b8ff" stroke="#63b8ff" points="223,-86.37 219.5,-76.37 216,-86.37 223,-86.37"/>
</a>
</g>
</g>
<!-- Node3 -->
<g id="Node000003" class="node">
<title>Node3</title>
<g id="a_Node000003"><a xlink:title=" ">
<polygon fill="#e0e0e0" stroke="#999999" points="43,-19.25 0,-19.25 0,0 43,0 43,-19.25"/>
<text xml:space="preserve" text-anchor="middle" x="21.5" y="-5.75" font-family="Helvetica,sans-Serif" font-size="10.00">omp.h</text>
</a>
</g>
</g>
<!-- Node2&#45;&gt;Node3 -->
<g id="edge2_Node000002_Node000003" class="edge">
<title>Node2&#45;&gt;Node3</title>
<g id="a_edge2_Node000002_Node000003"><a xlink:title=" ">
<path fill="none" stroke="#63b8ff" d="M184.37,-54.77C152.67,-46.5 104.47,-33.8 54.47,-20.04"/>
<polygon fill="#63b8ff" stroke="#63b8ff" points="55.47,-16.68 44.9,-17.39 53.61,-23.43 55.47,-16.68"/>
</a>
</g>
</g>
<!-- Node4 -->
<g id="Node000004" class="node">
<title>Node4</title>
<g id="a_Node000004"><a xlink:title=" ">
<polygon fill="#e0e0e0" stroke="#999999" points="114.25,-19.25 60.75,-19.25 60.75,0 114.25,0 114.25,-19.25"/>
<text xml:space="preserve" text-anchor="middle" x="87.5" y="-5.75" font-family="Helvetica,sans-Serif" font-size="10.00">iostream</text>
</a>
</g>
</g>
<!-- Node2&#45;&gt;Node4 -->
<g id="edge3_Node000002_Node000004" class="edge">
<title>Node2&#45;&gt;Node4</title>
<g id="a_edge3_Node000002_Node000004"><a xlink:title=" ">
<path fill="none" stroke="#63b8ff" d="M197.11,-54.84C176.06,-46.35 144.3,-33.54 120.38,-23.89"/>
<polygon fill="#63b8ff" stroke="#63b8ff" points="121.99,-20.76 111.41,-20.27 119.37,-27.26 121.99,-20.76"/>
</a>
</g>
</g>
<!-- Node5 -->
<g id="Node000005" class="node">
<title>Node5</title>
<g id="a_Node000005"><a xlink:title=" ">
<polygon fill="#e0e0e0" stroke="#999999" points="181,-19.25 132,-19.25 132,0 181,0 181,-19.25"/>
<text xml:space="preserve" text-anchor="middle" x="156.5" y="-5.75" font-family="Helvetica,sans-Serif" font-size="10.00">fstream</text>
</a>
</g>
</g>
<!-- Node2&#45;&gt;Node5 -->
<g id="edge4_Node000002_Node000005" class="edge">
<title>Node2&#45;&gt;Node5</title>
<g id="a_edge4_Node000002_Node000005"><a xlink:title=" ">
<path fill="none" stroke="#63b8ff" d="M208.81,-54.84C199.8,-47.22 186.67,-36.12 175.82,-26.95"/>
<polygon fill="#63b8ff" stroke="#63b8ff" points="178.08,-24.28 168.19,-20.5 173.56,-29.63 178.08,-24.28"/>
</a>
</g>
</g>
<!-- Node6 -->
<g id="Node000006" class="node">
<title>Node6</title>
<g id="a_Node000006"><a xlink:title=" ">
<polygon fill="#e0e0e0" stroke="#999999" points="239.5,-19.25 199.5,-19.25 199.5,0 239.5,0 239.5,-19.25"/>
<text xml:space="preserve" text-anchor="middle" x="219.5" y="-5.75" font-family="Helvetica,sans-Serif" font-size="10.00">string</text>
</a>
</g>
</g>
<!-- Node2&#45;&gt;Node6 -->
<g id="edge5_Node000002_Node000006" class="edge">
<title>Node2&#45;&gt;Node6</title>
<g id="a_edge5_Node000002_Node000006"><a xlink:title=" ">
<path fill="none" stroke="#63b8ff" d="M219.5,-55.08C219.5,-48.57 219.5,-39.42 219.5,-31.12"/>
<polygon fill="#63b8ff" stroke="#63b8ff" points="223,-31.12 219.5,-21.12 216,-31.12 223,-31.12"/>
</a>
</g>
</g>
<!-- Node7 -->
<g id="Node000007" class="node">
<title>Node7</title>
<g id="a_Node000007"><a xlink:title=" ">
<polygon fill="#e0e0e0" stroke="#999999" points="307.38,-19.25 257.62,-19.25 257.62,0 307.38,0 307.38,-19.25"/>
<text xml:space="preserve" text-anchor="middle" x="282.5" y="-5.75" font-family="Helvetica,sans-Serif" font-size="10.00">iomanip</text>
</a>
</g>
</g>
<!-- Node2&#45;&gt;Node7 -->
<g id="edge6_Node000002_Node000007" class="edge">
<title>Node2&#45;&gt;Node7</title>
<g id="a_edge6_Node000002_Node000007"><a xlink:title=" ">
<path fill="none" stroke="#63b8ff" d="M230.19,-54.84C239.2,-47.22 252.33,-36.12 263.18,-26.95"/>
<polygon fill="#63b8ff" stroke="#63b8ff" points="265.44,-29.63 270.81,-20.5 260.92,-24.28 265.44,-29.63"/>
</a>
</g>
</g>
<!-- Node8 -->
<g id="Node000008" class="node">
<title>Node8</title>
<g id="a_Node000008"><a xlink:title=" ">
<polygon fill="#e0e0e0" stroke="#999999" points="368,-19.25 325,-19.25 325,0 368,0 368,-19.25"/>
<text xml:space="preserve" text-anchor="middle" x="346.5" y="-5.75" font-family="Helvetica,sans-Serif" font-size="10.00">cmath</text>
</a>
</g>
</g>
<!-- Node2&#45;&gt;Node8 -->
<g id="edge7_Node000002_Node000008" class="edge">
<title>Node2&#45;&gt;Node8</title>
<g id="a_edge7_Node000002_Node000008"><a xlink:title=" ">
<path fill="none" stroke="#63b8ff" d="M241.04,-54.84C261.11,-46.43 291.3,-33.77 314.25,-24.15"/>
<polygon fill="#63b8ff" stroke="#63b8ff" points="315.59,-27.38 323.45,-20.29 312.88,-20.93 315.59,-27.38"/>
</a>
</g>
</g>
<!-- Node9 -->
<g id="Node000009" class="node">
<title>Node9</title>
<g id="a_Node000009"><a xlink:title=" ">
<polygon fill="#e0e0e0" stroke="#999999" points="425.12,-19.25 385.88,-19.25 385.88,0 425.12,0 425.12,-19.25"/>
<text xml:space="preserve" text-anchor="middle" x="405.5" y="-5.75" font-family="Helvetica,sans-Serif" font-size="10.00">limits</text>
</a>
</g>
</g>
<!-- Node2&#45;&gt;Node9 -->
<g id="edge8_Node000002_Node000009" class="edge">
<title>Node2&#45;&gt;Node9</title>
<g id="a_edge8_Node000002_Node000009"><a xlink:title=" ">
<path fill="none" stroke="#63b8ff" d="M252.55,-54.78C282.31,-46.54 327.52,-33.9 374.86,-19.99"/>
<polygon fill="#63b8ff" stroke="#63b8ff" points="375.58,-23.42 384.18,-17.24 373.6,-16.71 375.58,-23.42"/>
</a>
</g>
</g>
</g>
</svg>
