<?xml version="1.0" encoding="UTF-8" standalone="no"?>
<!DOCTYPE svg PUBLIC "-//W3C//DTD SVG 1.1//EN"
 "http://www.w3.org/Graphics/SVG/1.1/DTD/svg11.dtd">
<!-- Generated by graphviz version 14.1.3 (20260303.0454)
 -->
<!-- Title: matrix.hh Pages: 1 -->
<svg width="307pt" height="83pt"
 viewBox="0.00 0.00 307.00 83.00" xmlns="http://www.w3.org/2000/svg" xmlns:xlink="http://www.w3.org/1999/xlink">

<svg id="main" version="1.1" xmlns="http://www.w3.org/2000/svg" xmlns:xlink="http://www.w3.org/1999/xlink" xml:space="preserve">

<style type="text/css"><![CDATA[
.node, .edge {opacity: 0.7;}
.node.selected, .edge.selected {opacity: 1;}
.edge:hover path { stroke: red; }
.edge:hover polygon { stroke: red; fill: red; }
]]></style>
<script type="application/ecmascript" xlink:href="svg.min.js"/>
<svg id="graph" class="graph">
<g id="graph0" class="graph" transform="scale(1 1) rotate(0) translate(4 78.5)">
<title>matrix.hh</title>
<!-- Node1 -->
<g id="Node000001" class="node">
<title>Node1</title>
<g id="a_Node000001"><a xlink:title="Matrix data structure and low&#45;level operations for the heat diffusion solver.">
<polygon fill="#999999" stroke="#666666" points="181.5,-74.5 125,-74.5 125,-55.25 181.5,-55.25 181.5,-74.5"/>
<text xml:space="preserve" text-anchor="middle" x="153.25" y="-61" font-family="Helvetica,sans-Serif" font-size="10.00">matrix.hh</text>
</a>
</g>
</g>
<!-- Node2 -->
<g id="Node000002" class="node">
<title>Node2</title>
<g id="a_Node000002"><a xlink:href="matrix_8cc.html" target="_top" xlink:title="Implementation of Matrix methods used by sequential and OpenMP solvers.">
<polygon fill="white" stroke="#666666" points="56.5,-19.25 0,-19.25 0,0 56.5,0 56.5,-19.25"/>
<text xml:space="preserve" text-anchor="middle" x="28.25" y="-5.75" font-family="Helvetica,sans-Serif" font-size="10.00">matrix.cc</text>
</a>
</g>
</g>
<!-- Node1&#45;&gt;Node2 -->
<g id="edge1_Node000001_Node000002" class="edge">
<title>Node1&#45;&gt;Node2</title>
<g id="a_edge1_Node000001_Node000002"><a xlink:title=" ">
<path fill="none" stroke="#63b8ff" d="M121.62,-50.4C99.07,-40.79 69.35,-28.13 49.56,-19.7"/>
<polygon fill="#63b8ff" stroke="#63b8ff" points="120.08,-53.55 130.65,-54.25 122.82,-47.11 120.08,-53.55"/>
</a>
</g>
</g>
<!-- Node3 -->
<g id="Node000003" class="node">
<title>Node3</title>
<g id="a_Node000003"><a xlink:href="par__main_8cc.html" target="_top" xlink:title="OpenMP&#45;parallel finite&#45;difference solver for 2D heat dissipation.">
<polygon fill="white" stroke="#666666" points="143.88,-19.25 74.62,-19.25 74.62,0 143.88,0 143.88,-19.25"/>
<text xml:space="preserve" text-anchor="middle" x="109.25" y="-5.75" font-family="Helvetica,sans-Serif" font-size="10.00">par_main.cc</text>
</a>
</g>
</g>
<!-- Node1&#45;&gt;Node3 -->
<g id="edge2_Node000001_Node000003" class="edge">
<title>Node1&#45;&gt;Node3</title>
<g id="a_edge2_Node000001_Node000003"><a xlink:title=" ">
<path fill="none" stroke="#63b8ff" d="M138.67,-46.22C131.3,-37.31 122.67,-26.87 116.67,-19.61"/>
<polygon fill="#63b8ff" stroke="#63b8ff" points="135.95,-48.44 145.02,-53.92 141.35,-43.98 135.95,-48.44"/>
</a>
</g>
</g>
<!-- Node4 -->
<g id="Node000004" class="node">
<title>Node4</title>
<g id="a_Node000004"><a xlink:href="seq__main_8cc.html" target="_top" xlink:title="Sequential finite&#45;difference solver for 2D heat dissipation.">
<polygon fill="white" stroke="#666666" points="233,-19.25 161.5,-19.25 161.5,0 233,0 233,-19.25"/>
<text xml:space="preserve" text-anchor="middle" x="197.25" y="-5.75" font-family="Helvetica,sans-Serif" font-size="10.00">seq_main.cc</text>
</a>
</g>
</g>
<!-- Node1&#45;&gt;Node4 -->
<g id="edge3_Node000001_Node000004" class="edge">
<title>Node1&#45;&gt;Node4</title>
<g id="a_edge3_Node000001_Node000004"><a xlink:title=" ">
<path fill="none" stroke="#63b8ff" d="M167.83,-46.22C175.2,-37.31 183.83,-26.87 189.83,-19.61"/>
<polygon fill="#63b8ff" stroke="#63b8ff" points="165.15,-43.98 161.48,-53.92 170.55,-48.44 165.15,-43.98"/>
</a>
</g>
</g>
<!-- Node5 -->
<g id="Node000005" class="node">
<title>Node5</title>
<g id="a_Node000005"><a xlink:href="size_8cc.html" target="_top" xlink:title=" ">
<polygon fill="white" stroke="#666666" points="299,-19.25 251.5,-19.25 251.5,0 299,0 299,-19.25"/>
<text xml:space="preserve" text-anchor="middle" x="275.25" y="-5.75" font-family="Helvetica,sans-Serif" font-size="10.00">size.cc</text>
</a>
</g>
</g>
<!-- Node1&#45;&gt;Node5 -->
<g id="edge4_Node000001_Node000005" class="edge">
<title>Node1&#45;&gt;Node5</title>
<g id="a_edge4_Node000001_Node000005"><a xlink:title=" ">
<path fill="none" stroke="#63b8ff" d="M184.42,-50.27C206.4,-40.68 235.23,-28.09 254.45,-19.7"/>
<polygon fill="#63b8ff" stroke="#63b8ff" points="183.1,-47.03 175.33,-54.24 185.9,-53.44 183.1,-47.03"/>
</a>
</g>
</g>
</g>
</svg>
</svg>

<style type='text/css'>
<![CDATA[
[data-mouse-over-selected='false'] { opacity: 0.7; }
[data-mouse-over-selected='true']  { opacity: 1.0; }
]]>
</style>
<script type="application/ecmascript"><![CDATA[
document.addEventListener('DOMContentLoaded', (event) => {
  highlightEdges();
  highlightAdjacentNodes();
});
]]></script>
</svg>
