<?xml version="1.0" encoding="UTF-8" standalone="no"?>
<!DOCTYPE svg PUBLIC "-//W3C//DTD SVG 1.1//EN"
 "http://www.w3.org/Graphics/SVG/1.1/DTD/svg11.dtd">
<!-- Generated by graphviz version 14.1.3 (20260303.0454)
 -->
<!-- Title: main Pages: 1 -->
<svg width="388pt" height="139pt"
 viewBox="0.00 0.00 388.00 139.00" xmlns="http://www.w3.org/2000/svg" xmlns:xlink="http://www.w3.org/1999/xlink">

<svg id="main" version="1.1" xmlns="http://www.w3.org/2000/svg" xmlns:xlink="http://www.w3.org/1999/xlink" xml:space="preserve">

<style type="text/css"><![CDATA[
.node, .edge {opacity: 0.7;}
.node.selected, .edge.selected {opacity: 1;}
.edge:hover path { stroke: red; }
.edge:hover polygon { stroke: red; fill: red; }
]]></style>
<script type="application/ecmascript" xlink:href="svg.min.js"/>
<svg id="graph" class="graph">
<g id="graph0" class="graph" transform="scale(1 1) rotate(0) translate(4 135.25)">
<title>main</title>
<!-- Node1 -->
<g id="Node000001" class="node">
<title>Node1</title>
<g id="a_Node000001"><a xlink:title="Runs the parallel benchmark and writes outputs/timings to disk.">
<polygon fill="#999999" stroke="#666666" points="37,-94.25 0,-94.25 0,-75 37,-75 37,-94.25"/>
<text xml:space="preserve" text-anchor="middle" x="18.5" y="-80.75" font-family="Helvetica,sans-Serif" font-size="10.00">main</text>
</a>
</g>
</g>
<!-- Node2 -->
<g id="Node000002" class="node">
<title>Node2</title>
<g id="a_Node000002"><a xlink:href="class_matrix.html#a1f6a78ba678809111d241e7caba4e28d" target="_top" xlink:title="Copies all elements from another matrix inside a parallel region.">
<polygon fill="white" stroke="#666666" points="191.75,-131.25 73,-131.25 73,-112 191.75,-112 191.75,-131.25"/>
<text xml:space="preserve" text-anchor="middle" x="132.38" y="-117.75" font-family="Helvetica,sans-Serif" font-size="10.00">Matrix::copy_in_parallel</text>
</a>
</g>
</g>
<!-- Node1&#45;&gt;Node2 -->
<g id="edge1_Node000001_Node000002" class="edge">
<title>Node1&#45;&gt;Node2</title>
<g id="a_edge1_Node000001_Node000002"><a xlink:title=" ">
<path fill="none" stroke="#63b8ff" d="M37.27,-91.15C47.65,-94.9 61.02,-99.65 73,-103.62 77.53,-105.13 82.27,-106.66 87.01,-108.16"/>
<polygon fill="#63b8ff" stroke="#63b8ff" points="85.92,-111.49 96.51,-111.13 88.02,-104.81 85.92,-111.49"/>
</a>
</g>
</g>
<!-- Node4 -->
<g id="Node000004" class="node">
<title>Node4</title>
<g id="a_Node000004"><a xlink:href="std__libraries_8cc.html#ac56180a306301840805204fbd3913065" target="_top" xlink:title="Checks whether an integer is a power of two.">
<polygon fill="white" stroke="#666666" points="172.25,-94.25 92.5,-94.25 92.5,-75 172.25,-75 172.25,-94.25"/>
<text xml:space="preserve" text-anchor="middle" x="132.38" y="-80.75" font-family="Helvetica,sans-Serif" font-size="10.00">is_Power_Two</text>
</a>
</g>
</g>
<!-- Node1&#45;&gt;Node4 -->
<g id="edge3_Node000001_Node000004" class="edge">
<title>Node1&#45;&gt;Node4</title>
<g id="a_edge3_Node000001_Node000004"><a xlink:title=" ">
<path fill="none" stroke="#63b8ff" d="M37.47,-84.62C49.3,-84.62 65.42,-84.62 80.96,-84.62"/>
<polygon fill="#63b8ff" stroke="#63b8ff" points="80.6,-88.13 90.6,-84.63 80.6,-81.13 80.6,-88.13"/>
</a>
</g>
</g>
<!-- Node5 -->
<g id="Node000005" class="node">
<title>Node5</title>
<g id="a_Node000005"><a xlink:href="std__libraries_8cc.html#a62e4d88bca9f9ce36e6b197368454d45" target="_top" xlink:title="Writes benchmark statistics to statistics.txt.">
<polygon fill="white" stroke="#666666" points="163.25,-57.25 101.5,-57.25 101.5,-38 163.25,-38 163.25,-57.25"/>
<text xml:space="preserve" text-anchor="middle" x="132.38" y="-43.75" font-family="Helvetica,sans-Serif" font-size="10.00">print_stats</text>
</a>
</g>
</g>
<!-- Node1&#45;&gt;Node5 -->
<g id="edge4_Node000001_Node000005" class="edge">
<title>Node1&#45;&gt;Node5</title>
<g id="a_edge4_Node000001_Node000005"><a xlink:title=" ">
<path fill="none" stroke="#63b8ff" d="M37.27,-78.1C47.65,-74.35 61.02,-69.6 73,-65.62 78.58,-63.77 84.49,-61.88 90.31,-60.05"/>
<polygon fill="#63b8ff" stroke="#63b8ff" points="91.34,-63.39 99.86,-57.08 89.27,-56.71 91.34,-63.39"/>
</a>
</g>
</g>
<!-- Node3 -->
<g id="Node000003" class="node">
<title>Node3</title>
<g id="a_Node000003"><a xlink:href="class_matrix.html#ab6c4ca8ac72447a3cbe10dcc779c0129" target="_top" xlink:title="Builds an size x size matrix.">
<polygon fill="white" stroke="#666666" points="303.75,-131.25 227.75,-131.25 227.75,-112 303.75,-112 303.75,-131.25"/>
<text xml:space="preserve" text-anchor="middle" x="265.75" y="-117.75" font-family="Helvetica,sans-Serif" font-size="10.00">Matrix::Matrix</text>
</a>
</g>
</g>
<!-- Node2&#45;&gt;Node3 -->
<g id="edge2_Node000002_Node000003" class="edge">
<title>Node2&#45;&gt;Node3</title>
<g id="a_edge2_Node000002_Node000003"><a xlink:title=" ">
<path fill="none" stroke="#63b8ff" d="M192.15,-121.62C200.13,-121.62 208.25,-121.62 216.03,-121.62"/>
<polygon fill="#63b8ff" stroke="#63b8ff" points="216.01,-125.13 226.01,-121.63 216.01,-118.13 216.01,-125.13"/>
</a>
</g>
</g>
<!-- Node6 -->
<g id="Node000006" class="node">
<title>Node6</title>
<g id="a_Node000006"><a xlink:href="std__libraries_8cc.html#af4f41f800decee2445f4d27802f3fe7d" target="_top" xlink:title="Arithmetic mean implementation.">
<polygon fill="white" stroke="#666666" points="379.75,-47.25 339.75,-47.25 339.75,-28 379.75,-28 379.75,-47.25"/>
<text xml:space="preserve" text-anchor="middle" x="359.75" y="-33.75" font-family="Helvetica,sans-Serif" font-size="10.00">mean</text>
</a>
</g>
</g>
<!-- Node5&#45;&gt;Node6 -->
<g id="edge5_Node000005_Node000006" class="edge">
<title>Node5&#45;&gt;Node6</title>
<g id="a_edge5_Node000005_Node000006"><a xlink:title=" ">
<path fill="none" stroke="#63b8ff" d="M163.6,-48.87C197.71,-49.94 254.82,-50.75 303.75,-46.62 311.78,-45.95 320.41,-44.76 328.4,-43.46"/>
<polygon fill="#63b8ff" stroke="#63b8ff" points="328.75,-46.95 338.01,-41.79 327.55,-40.06 328.75,-46.95"/>
</a>
</g>
</g>
<!-- Node7 -->
<g id="Node000007" class="node">
<title>Node7</title>
<g id="a_Node000007"><a xlink:href="std__libraries_8cc.html#a65cb5d525370b5795dd31644614e6fa0" target="_top" xlink:title="Standard deviation implementation.">
<polygon fill="white" stroke="#666666" points="280.15,-19.25 251.35,-19.25 251.35,0 280.15,0 280.15,-19.25"/>
<text xml:space="preserve" text-anchor="middle" x="265.75" y="-5.75" font-family="Helvetica,sans-Serif" font-size="10.00">sd</text>
</a>
</g>
</g>
<!-- Node5&#45;&gt;Node7 -->
<g id="edge7_Node000005_Node000007" class="edge">
<title>Node5&#45;&gt;Node7</title>
<g id="a_edge7_Node000005_Node000007"><a xlink:title=" ">
<path fill="none" stroke="#63b8ff" d="M163.52,-38.91C186.78,-32.18 218.56,-22.98 240.27,-16.71"/>
<polygon fill="#63b8ff" stroke="#63b8ff" points="241.09,-20.11 249.72,-13.97 239.14,-13.39 241.09,-20.11"/>
</a>
</g>
</g>
<!-- Node6&#45;&gt;Node6 -->
<g id="edge6_Node000006_Node000006" class="edge">
<title>Node6&#45;&gt;Node6</title>
<g id="a_edge6_Node000006_Node000006"><a xlink:title=" ">
<path fill="none" stroke="#63b8ff" d="M345.03,-47.54C338.32,-56.15 343.23,-65.25 359.75,-65.25 368.79,-65.25 374.35,-62.53 376.43,-58.65"/>
<polygon fill="#63b8ff" stroke="#63b8ff" points="379.92,-58.26 374.73,-49.03 373.03,-59.49 379.92,-58.26"/>
</a>
</g>
</g>
<!-- Node7&#45;&gt;Node6 -->
<g id="edge8_Node000007_Node000006" class="edge">
<title>Node7&#45;&gt;Node6</title>
<g id="a_edge8_Node000007_Node000006"><a xlink:title=" ">
<path fill="none" stroke="#63b8ff" d="M280.32,-13.76C293,-17.61 312.34,-23.5 328.65,-28.46"/>
<polygon fill="#63b8ff" stroke="#63b8ff" points="327.3,-31.71 337.89,-31.28 329.34,-25.02 327.3,-31.71"/>
</a>
</g>
</g>
<!-- Node7&#45;&gt;Node7 -->
<g id="edge9_Node000007_Node000007" class="edge">
<title>Node7&#45;&gt;Node7</title>
<g id="a_edge9_Node000007_Node000007"><a xlink:title=" ">
<path fill="none" stroke="#63b8ff" d="M251.03,-19.54C244.32,-28.15 249.23,-37.25 265.75,-37.25 274.79,-37.25 280.35,-34.53 282.43,-30.65"/>
<polygon fill="#63b8ff" stroke="#63b8ff" points="285.92,-30.26 280.73,-21.03 279.03,-31.49 285.92,-30.26"/>
</a>
</g>
</g>
</g>
</svg>
</svg>

<style type='text/css'>
<![CDATA[
[data-mouse-over-selected='false'] { opacity: 0.7; }
[data-mouse-over-selected='true']  { opacity: 1.0; }
]]>
</style>
<script type="application/ecmascript"><![CDATA[
document.addEventListener('DOMContentLoaded', (event) => {
  highlightEdges();
  highlightAdjacentNodes();
});
]]></script>
</svg>
