<?xml version="1.0" encoding="UTF-8" standalone="no"?>
<!DOCTYPE svg PUBLIC "-//W3C//DTD SVG 1.1//EN"
 "http://www.w3.org/Graphics/SVG/1.1/DTD/svg11.dtd">
<!-- Generated by graphviz version 14.1.3 (20260303.0454)
 -->
<!-- Title: main Pages: 1 -->
<svg width="284pt" height="73pt"
 viewBox="0.00 0.00 284.00 73.00" xmlns="http://www.w3.org/2000/svg" xmlns:xlink="http://www.w3.org/1999/xlink">

<svg id="main" version="1.1" xmlns="http://www.w3.org/2000/svg" xmlns:xlink="http://www.w3.org/1999/xlink" xml:space="preserve">

<style type="text/css"><![CDATA[
.node, .edge {opacity: 0.7;}
.node.selected, .edge.selected {opacity: 1;}
.edge:hover path { stroke: red; }
.edge:hover polygon { stroke: red; fill: red; }
]]></style>
<script type="application/ecmascript" xlink:href="svg.min.js"/>
<svg id="graph" class="graph">
<g id="graph0" class="graph" transform="scale(1 1) rotate(0) translate(4 69.25)">
<title>main</title>
<!-- Node1 -->
<g id="Node000001" class="node">
<title>Node1</title>
<g id="a_Node000001"><a xlink:title="Runs the sequential benchmark and writes outputs/timings to disk.">
<polygon fill="#999999" stroke="#666666" points="37,-47.25 0,-47.25 0,-28 37,-28 37,-47.25"/>
<text xml:space="preserve" text-anchor="middle" x="18.5" y="-33.75" font-family="Helvetica,sans-Serif" font-size="10.00">main</text>
</a>
</g>
</g>
<!-- Node2 -->
<g id="Node000002" class="node">
<title>Node2</title>
<g id="a_Node000002"><a xlink:href="std__libraries_8cc.html#a62e4d88bca9f9ce36e6b197368454d45" target="_top" xlink:title="Writes benchmark statistics to statistics.txt.">
<polygon fill="white" stroke="#666666" points="134.75,-47.25 73,-47.25 73,-28 134.75,-28 134.75,-47.25"/>
<text xml:space="preserve" text-anchor="middle" x="103.88" y="-33.75" font-family="Helvetica,sans-Serif" font-size="10.00">print_stats</text>
</a>
</g>
</g>
<!-- Node1&#45;&gt;Node2 -->
<g id="edge1_Node000001_Node000002" class="edge">
<title>Node1&#45;&gt;Node2</title>
<g id="a_edge1_Node000001_Node000002"><a xlink:title=" ">
<path fill="none" stroke="#63b8ff" d="M37.18,-37.62C44.28,-37.62 52.79,-37.62 61.29,-37.62"/>
<polygon fill="#63b8ff" stroke="#63b8ff" points="61.23,-41.13 71.23,-37.63 61.23,-34.13 61.23,-41.13"/>
</a>
</g>
</g>
<!-- Node3 -->
<g id="Node000003" class="node">
<title>Node3</title>
<g id="a_Node000003"><a xlink:href="std__libraries_8cc.html#af4f41f800decee2445f4d27802f3fe7d" target="_top" xlink:title="Arithmetic mean implementation.">
<polygon fill="white" stroke="#666666" points="275.55,-47.25 235.55,-47.25 235.55,-28 275.55,-28 275.55,-47.25"/>
<text xml:space="preserve" text-anchor="middle" x="255.55" y="-33.75" font-family="Helvetica,sans-Serif" font-size="10.00">mean</text>
</a>
</g>
</g>
<!-- Node2&#45;&gt;Node3 -->
<g id="edge2_Node000002_Node000003" class="edge">
<title>Node2&#45;&gt;Node3</title>
<g id="a_edge2_Node000002_Node000003"><a xlink:title=" ">
<path fill="none" stroke="#63b8ff" d="M135.13,-43.22C153.71,-45.98 177.99,-48.38 199.55,-46.62 207.58,-45.97 216.21,-44.79 224.2,-43.49"/>
<polygon fill="#63b8ff" stroke="#63b8ff" points="224.56,-46.99 233.81,-41.82 223.36,-40.09 224.56,-46.99"/>
</a>
</g>
</g>
<!-- Node4 -->
<g id="Node000004" class="node">
<title>Node4</title>
<g id="a_Node000004"><a xlink:href="std__libraries_8cc.html#a65cb5d525370b5795dd31644614e6fa0" target="_top" xlink:title="Standard deviation implementation.">
<polygon fill="white" stroke="#666666" points="199.55,-19.25 170.75,-19.25 170.75,0 199.55,0 199.55,-19.25"/>
<text xml:space="preserve" text-anchor="middle" x="185.15" y="-5.75" font-family="Helvetica,sans-Serif" font-size="10.00">sd</text>
</a>
</g>
</g>
<!-- Node2&#45;&gt;Node4 -->
<g id="edge4_Node000002_Node000004" class="edge">
<title>Node2&#45;&gt;Node4</title>
<g id="a_edge4_Node000002_Node000004"><a xlink:title=" ">
<path fill="none" stroke="#63b8ff" d="M133.5,-27.52C142.06,-24.49 151.36,-21.21 159.63,-18.28"/>
<polygon fill="#63b8ff" stroke="#63b8ff" points="160.76,-21.6 169.03,-14.97 158.43,-15 160.76,-21.6"/>
</a>
</g>
</g>
<!-- Node3&#45;&gt;Node3 -->
<g id="edge3_Node000003_Node000003" class="edge">
<title>Node3&#45;&gt;Node3</title>
<g id="a_edge3_Node000003_Node000003"><a xlink:title=" ">
<path fill="none" stroke="#63b8ff" d="M244.53,-47.54C239.5,-56.15 243.18,-65.25 255.55,-65.25 262.32,-65.25 266.48,-62.53 268.05,-58.65"/>
<polygon fill="#63b8ff" stroke="#63b8ff" points="271.56,-58.49 266.77,-49.04 264.62,-59.41 271.56,-58.49"/>
</a>
</g>
</g>
<!-- Node4&#45;&gt;Node3 -->
<g id="edge5_Node000004_Node000003" class="edge">
<title>Node4&#45;&gt;Node3</title>
<g id="a_edge5_Node000004_Node000003"><a xlink:title=" ">
<path fill="none" stroke="#63b8ff" d="M199.99,-15.29C207.13,-18.21 216.12,-21.9 224.74,-25.42"/>
<polygon fill="#63b8ff" stroke="#63b8ff" points="223.3,-28.62 233.89,-29.17 225.96,-22.14 223.3,-28.62"/>
</a>
</g>
</g>
<!-- Node4&#45;&gt;Node4 -->
<g id="edge6_Node000004_Node000004" class="edge">
<title>Node4&#45;&gt;Node4</title>
<g id="a_edge6_Node000004_Node000004"><a xlink:title=" ">
<path fill="none" stroke="#63b8ff" d="M174.13,-19.54C169.1,-28.15 172.78,-37.25 185.15,-37.25 191.92,-37.25 196.08,-34.53 197.65,-30.65"/>
<polygon fill="#63b8ff" stroke="#63b8ff" points="201.16,-30.49 196.37,-21.04 194.22,-31.41 201.16,-30.49"/>
</a>
</g>
</g>
</g>
</svg>
</svg>

<style type='text/css'>
<![CDATA[
[data-mouse-over-selected='false'] { opacity: 0.7; }
[data-mouse-over-selected='true']  { opacity: 1.0; }
]]>
</style>
<script type="application/ecmascript"><![CDATA[
document.addEventListener('DOMContentLoaded', (event) => {
  highlightEdges();
  highlightAdjacentNodes();
});
]]></script>
</svg>
