<?xml version="1.0" encoding="UTF-8" standalone="no"?>
<!DOCTYPE svg PUBLIC "-//W3C//DTD SVG 1.1//EN"
 "http://www.w3.org/Graphics/SVG/1.1/DTD/svg11.dtd">
<!-- Generated by graphviz version 14.1.3 (20260303.0454)
 -->
<!-- Title: sd Pages: 1 -->
<svg width="113pt" height="45pt"
 viewBox="0.00 0.00 113.00 45.00" xmlns="http://www.w3.org/2000/svg" xmlns:xlink="http://www.w3.org/1999/xlink">
<g id="graph0" class="graph" transform="scale(1 1) rotate(0) translate(4 41.25)">
<title>sd</title>
<!-- Node1 -->
<g id="Node000001" class="node">
<title>Node1</title>
<g id="a_Node000001"><a xlink:title="Computes standard deviation of an array.">
<polygon fill="#999999" stroke="#666666" points="28.8,-19.25 0,-19.25 0,0 28.8,0 28.8,-19.25"/>
<text xml:space="preserve" text-anchor="middle" x="14.4" y="-5.75" font-family="Helvetica,sans-Serif" font-size="10.00">sd</text>
</a>
</g>
</g>
<!-- Node1&#45;&gt;Node1 -->
<g id="edge3_Node000001_Node000001" class="edge">
<title>Node1&#45;&gt;Node1</title>
<g id="a_edge3_Node000001_Node000001"><a xlink:title=" ">
<path fill="none" stroke="#63b8ff" d="M3.38,-19.54C-1.65,-28.15 2.03,-37.25 14.4,-37.25 21.17,-37.25 25.33,-34.53 26.9,-30.65"/>
<polygon fill="#63b8ff" stroke="#63b8ff" points="30.41,-30.49 25.62,-21.04 23.47,-31.41 30.41,-30.49"/>
</a>
</g>
</g>
<!-- Node2 -->
<g id="Node000002" class="node">
<title>Node2</title>
<g id="a_Node000002"><a xlink:href="std__libraries_8cc.html#af4f41f800decee2445f4d27802f3fe7d" target="_top" xlink:title="Computes arithmetic mean of an array.">
<polygon fill="white" stroke="#666666" points="104.8,-19.25 64.8,-19.25 64.8,0 104.8,0 104.8,-19.25"/>
<text xml:space="preserve" text-anchor="middle" x="84.8" y="-5.75" font-family="Helvetica,sans-Serif" font-size="10.00">mean</text>
</a>
</g>
</g>
<!-- Node1&#45;&gt;Node2 -->
<g id="edge1_Node000001_Node000002" class="edge">
<title>Node1&#45;&gt;Node2</title>
<g id="a_edge1_Node000001_Node000002"><a xlink:title=" ">
<path fill="none" stroke="#63b8ff" d="M29.24,-9.62C36.14,-9.62 44.78,-9.62 53.13,-9.62"/>
<polygon fill="#63b8ff" stroke="#63b8ff" points="53.02,-13.13 63.02,-9.63 53.02,-6.13 53.02,-13.13"/>
</a>
</g>
</g>
<!-- Node2&#45;&gt;Node2 -->
<g id="edge2_Node000002_Node000002" class="edge">
<title>Node2&#45;&gt;Node2</title>
<g id="a_edge2_Node000002_Node000002"><a xlink:title=" ">
<path fill="none" stroke="#63b8ff" d="M73.78,-19.54C68.75,-28.15 72.43,-37.25 84.8,-37.25 91.57,-37.25 95.73,-34.53 97.3,-30.65"/>
<polygon fill="#63b8ff" stroke="#63b8ff" points="100.81,-30.49 96.02,-21.04 93.87,-31.41 100.81,-30.49"/>
</a>
</g>
</g>
</g>
</svg>
