<?xml version="1.0" encoding="UTF-8" standalone="no"?>
<!DOCTYPE svg PUBLIC "-//W3C//DTD SVG 1.1//EN"
 "http://www.w3.org/Graphics/SVG/1.1/DTD/svg11.dtd">
<!-- Generated by graphviz version 14.1.3 (20260303.0454)
 -->
<!-- Title: sd Pages: 1 -->
<svg width="208pt" height="45pt"
 viewBox="0.00 0.00 208.00 45.00" xmlns="http://www.w3.org/2000/svg" xmlns:xlink="http://www.w3.org/1999/xlink">

<svg id="main" version="1.1" xmlns="http://www.w3.org/2000/svg" xmlns:xlink="http://www.w3.org/1999/xlink" xml:space="preserve">

<style type="text/css"><![CDATA[
.node, .edge {opacity: 0.7;}
.node.selected, .edge.selected {opacity: 1;}
.edge:hover path { stroke: red; }
.edge:hover polygon { stroke: red; fill: red; }
]]></style>
<script type="application/ecmascript" xlink:href="svg.min.js"/>
<svg id="graph" class="graph">
<g id="graph0" class="graph" transform="scale(1 1) rotate(0) translate(4 41.25)">
<title>sd</title>
<!-- Node1 -->
<g id="Node000001" class="node">
<title>Node1</title>
<g id="a_Node000001"><a xlink:title="Standard deviation implementation.">
<polygon fill="#999999" stroke="#666666" points="199.55,-19.25 170.75,-19.25 170.75,0 199.55,0 199.55,-19.25"/>
<text xml:space="preserve" text-anchor="middle" x="185.15" y="-5.75" font-family="Helvetica,sans-Serif" font-size="10.00">sd</text>
</a>
</g>
</g>
<!-- Node1&#45;&gt;Node1 -->
<g id="edge3_Node000001_Node000001" class="edge">
<title>Node1&#45;&gt;Node1</title>
<g id="a_edge3_Node000001_Node000001"><a xlink:title=" ">
<path fill="none" stroke="#63b8ff" d="M199.58,-30.65C197.77,-34.53 192.96,-37.25 185.15,-37.25 170.86,-37.25 166.62,-28.15 172.43,-19.54"/>
<polygon fill="#63b8ff" stroke="#63b8ff" points="203.08,-30.39 198.1,-21.03 196.16,-31.45 203.08,-30.39"/>
</a>
</g>
</g>
<!-- Node2 -->
<g id="Node000002" class="node">
<title>Node2</title>
<g id="a_Node000002"><a xlink:href="std__libraries_8cc.html#a62e4d88bca9f9ce36e6b197368454d45" target="_top" xlink:title="Writes benchmark statistics to statistics.txt.">
<polygon fill="white" stroke="#666666" points="134.75,-19.25 73,-19.25 73,0 134.75,0 134.75,-19.25"/>
<text xml:space="preserve" text-anchor="middle" x="103.88" y="-5.75" font-family="Helvetica,sans-Serif" font-size="10.00">print_stats</text>
</a>
</g>
</g>
<!-- Node1&#45;&gt;Node2 -->
<g id="edge1_Node000001_Node000002" class="edge">
<title>Node1&#45;&gt;Node2</title>
<g id="a_edge1_Node000001_Node000002"><a xlink:title=" ">
<path fill="none" stroke="#63b8ff" d="M158.89,-9.62C151.28,-9.62 142.84,-9.62 134.94,-9.62"/>
<polygon fill="#63b8ff" stroke="#63b8ff" points="158.83,-13.13 168.83,-9.63 158.83,-6.13 158.83,-13.13"/>
</a>
</g>
</g>
<!-- Node3 -->
<g id="Node000003" class="node">
<title>Node3</title>
<g id="a_Node000003"><a xlink:href="par__main_8cc.html#ac762d48b889bd832ec0d42abcbc50624" target="_top" xlink:title="Runs the parallel benchmark and writes outputs/timings to disk.">
<polygon fill="white" stroke="#666666" points="37,-19.25 0,-19.25 0,0 37,0 37,-19.25"/>
<text xml:space="preserve" text-anchor="middle" x="18.5" y="-5.75" font-family="Helvetica,sans-Serif" font-size="10.00">main</text>
</a>
</g>
</g>
<!-- Node2&#45;&gt;Node3 -->
<g id="edge2_Node000002_Node000003" class="edge">
<title>Node2&#45;&gt;Node3</title>
<g id="a_edge2_Node000002_Node000003"><a xlink:title=" ">
<path fill="none" stroke="#63b8ff" d="M61.31,-9.62C52.8,-9.62 44.29,-9.62 37.18,-9.62"/>
<polygon fill="#63b8ff" stroke="#63b8ff" points="61.26,-13.13 71.26,-9.63 61.26,-6.13 61.26,-13.13"/>
</a>
</g>
</g>
</g>
</svg>
</svg>

<style type='text/css'>
<![CDATA[
[data-mouse-over-selected='false'] { opacity: 0.7; }
[data-mouse-over-selected='true']  { opacity: 1.0; }
]]>
</style>
<script type="application/ecmascript"><![CDATA[
document.addEventListener('DOMContentLoaded', (event) => {
  highlightEdges();
  highlightAdjacentNodes();
});
]]></script>
</svg>
