<?xml version="1.0" encoding="UTF-8" standalone="no"?>
<!DOCTYPE svg PUBLIC "-//W3C//DTD SVG 1.1//EN"
 "http://www.w3.org/Graphics/SVG/1.1/DTD/svg11.dtd">
<!-- Generated by graphviz version 14.1.3 (20260303.0454)
 -->
<!-- Title: mean Pages: 1 -->
<svg width="284pt" height="73pt"
 viewBox="0.00 0.00 284.00 73.00" xmlns="http://www.w3.org/2000/svg" xmlns:xlink="http://www.w3.org/1999/xlink">

<svg id="main" version="1.1" xmlns="http://www.w3.org/2000/svg" xmlns:xlink="http://www.w3.org/1999/xlink" xml:space="preserve">

<style type="text/css"><![CDATA[
.node, .edge {opacity: 0.7;}
.node.selected, .edge.selected {opacity: 1;}
.edge:hover path { stroke: red; }
.edge:hover polygon { stroke: red; fill: red; }
]]></style>
<script type="application/ecmascript" xlink:href="svg.min.js"/>
<svg id="graph" class="graph">
<g id="graph0" class="graph" transform="scale(1 1) rotate(0) translate(4 69.25)">
<title>mean</title>
<!-- Node1 -->
<g id="Node000001" class="node">
<title>Node1</title>
<g id="a_Node000001"><a xlink:title="Arithmetic mean implementation.">
<polygon fill="#999999" stroke="#666666" points="275.55,-47.25 235.55,-47.25 235.55,-28 275.55,-28 275.55,-47.25"/>
<text xml:space="preserve" text-anchor="middle" x="255.55" y="-33.75" font-family="Helvetica,sans-Serif" font-size="10.00">mean</text>
</a>
</g>
</g>
<!-- Node1&#45;&gt;Node1 -->
<g id="edge1_Node000001_Node000001" class="edge">
<title>Node1&#45;&gt;Node1</title>
<g id="a_edge1_Node000001_Node000001"><a xlink:title=" ">
<path fill="none" stroke="#63b8ff" d="M268.05,-58.65C266.48,-62.53 262.32,-65.25 255.55,-65.25 243.18,-65.25 239.5,-56.15 244.53,-47.54"/>
<polygon fill="#63b8ff" stroke="#63b8ff" points="271.56,-58.49 266.77,-49.04 264.62,-59.41 271.56,-58.49"/>
</a>
</g>
</g>
<!-- Node2 -->
<g id="Node000002" class="node">
<title>Node2</title>
<g id="a_Node000002"><a xlink:href="std__libraries_8cc.html#a62e4d88bca9f9ce36e6b197368454d45" target="_top" xlink:title="Writes benchmark statistics to statistics.txt.">
<polygon fill="white" stroke="#666666" points="134.75,-47.25 73,-47.25 73,-28 134.75,-28 134.75,-47.25"/>
<text xml:space="preserve" text-anchor="middle" x="103.88" y="-33.75" font-family="Helvetica,sans-Serif" font-size="10.00">print_stats</text>
</a>
</g>
</g>
<!-- Node1&#45;&gt;Node2 -->
<g id="edge2_Node000001_Node000002" class="edge">
<title>Node1&#45;&gt;Node2</title>
<g id="a_edge2_Node000001_Node000002"><a xlink:title=" ">
<path fill="none" stroke="#63b8ff" d="M224.2,-43.49C216.21,-44.79 207.58,-45.97 199.55,-46.62 177.99,-48.38 153.71,-45.98 135.13,-43.22"/>
<polygon fill="#63b8ff" stroke="#63b8ff" points="224.56,-46.99 233.81,-41.82 223.36,-40.09 224.56,-46.99"/>
</a>
</g>
</g>
<!-- Node4 -->
<g id="Node000004" class="node">
<title>Node4</title>
<g id="a_Node000004"><a xlink:href="std__libraries_8cc.html#a65cb5d525370b5795dd31644614e6fa0" target="_top" xlink:title="Computes standard deviation of an array.">
<polygon fill="white" stroke="#666666" points="199.55,-19.25 170.75,-19.25 170.75,0 199.55,0 199.55,-19.25"/>
<text xml:space="preserve" text-anchor="middle" x="185.15" y="-5.75" font-family="Helvetica,sans-Serif" font-size="10.00">sd</text>
</a>
</g>
</g>
<!-- Node1&#45;&gt;Node4 -->
<g id="edge4_Node000001_Node000004" class="edge">
<title>Node1&#45;&gt;Node4</title>
<g id="a_edge4_Node000001_Node000004"><a xlink:title=" ">
<path fill="none" stroke="#63b8ff" d="M224.61,-25.37C216.03,-21.85 207.07,-18.19 199.97,-15.28"/>
<polygon fill="#63b8ff" stroke="#63b8ff" points="223.15,-28.55 233.73,-29.1 225.8,-22.08 223.15,-28.55"/>
</a>
</g>
</g>
<!-- Node3 -->
<g id="Node000003" class="node">
<title>Node3</title>
<g id="a_Node000003"><a xlink:href="par__main_8cc.html#ac762d48b889bd832ec0d42abcbc50624" target="_top" xlink:title="Runs the parallel benchmark and writes outputs/timings to disk.">
<polygon fill="white" stroke="#666666" points="37,-47.25 0,-47.25 0,-28 37,-28 37,-47.25"/>
<text xml:space="preserve" text-anchor="middle" x="18.5" y="-33.75" font-family="Helvetica,sans-Serif" font-size="10.00">main</text>
</a>
</g>
</g>
<!-- Node2&#45;&gt;Node3 -->
<g id="edge3_Node000002_Node000003" class="edge">
<title>Node2&#45;&gt;Node3</title>
<g id="a_edge3_Node000002_Node000003"><a xlink:title=" ">
<path fill="none" stroke="#63b8ff" d="M61.31,-37.62C52.8,-37.62 44.29,-37.62 37.18,-37.62"/>
<polygon fill="#63b8ff" stroke="#63b8ff" points="61.26,-41.13 71.26,-37.63 61.26,-34.13 61.26,-41.13"/>
</a>
</g>
</g>
<!-- Node4&#45;&gt;Node2 -->
<g id="edge5_Node000004_Node000002" class="edge">
<title>Node4&#45;&gt;Node2</title>
<g id="a_edge5_Node000004_Node000002"><a xlink:title=" ">
<path fill="none" stroke="#63b8ff" d="M159.76,-18.24C151.39,-21.19 141.95,-24.53 133.29,-27.59"/>
<polygon fill="#63b8ff" stroke="#63b8ff" points="160.65,-21.64 168.91,-15.01 158.32,-15.04 160.65,-21.64"/>
</a>
</g>
</g>
<!-- Node4&#45;&gt;Node4 -->
<g id="edge6_Node000004_Node000004" class="edge">
<title>Node4&#45;&gt;Node4</title>
<g id="a_edge6_Node000004_Node000004"><a xlink:title=" ">
<path fill="none" stroke="#63b8ff" d="M197.65,-30.65C196.08,-34.53 191.92,-37.25 185.15,-37.25 172.78,-37.25 169.1,-28.15 174.13,-19.54"/>
<polygon fill="#63b8ff" stroke="#63b8ff" points="201.16,-30.49 196.37,-21.04 194.22,-31.41 201.16,-30.49"/>
</a>
</g>
</g>
</g>
</svg>
</svg>

<style type='text/css'>
<![CDATA[
[data-mouse-over-selected='false'] { opacity: 0.7; }
[data-mouse-over-selected='true']  { opacity: 1.0; }
]]>
</style>
<script type="application/ecmascript"><![CDATA[
document.addEventListener('DOMContentLoaded', (event) => {
  highlightEdges();
  highlightAdjacentNodes();
});
]]></script>
</svg>
