<?xml version="1.0" encoding="UTF-8" standalone="no"?>
<!DOCTYPE svg PUBLIC "-//W3C//DTD SVG 1.1//EN"
 "http://www.w3.org/Graphics/SVG/1.1/DTD/svg11.dtd">
<!-- Generated by graphviz version 14.1.3 (20260303.0454)
 -->
<!-- Title: print_stats Pages: 1 -->
<svg width="211pt" height="73pt"
 viewBox="0.00 0.00 211.00 73.00" xmlns="http://www.w3.org/2000/svg" xmlns:xlink="http://www.w3.org/1999/xlink">
<g id="graph0" class="graph" transform="scale(1 1) rotate(0) translate(4 69.25)">
<title>print_stats</title>
<!-- Node1 -->
<g id="Node000001" class="node">
<title>Node1</title>
<g id="a_Node000001"><a xlink:title="Statistics output implementation.">
<polygon fill="#999999" stroke="#666666" points="61.75,-47.25 0,-47.25 0,-28 61.75,-28 61.75,-47.25"/>
<text xml:space="preserve" text-anchor="middle" x="30.88" y="-33.75" font-family="Helvetica,sans-Serif" font-size="10.00">print_stats</text>
</a>
</g>
</g>
<!-- Node2 -->
<g id="Node000002" class="node">
<title>Node2</title>
<g id="a_Node000002"><a xlink:href="std__libraries_8cc.html#af4f41f800decee2445f4d27802f3fe7d" target="_top" xlink:title="Arithmetic mean implementation.">
<polygon fill="white" stroke="#666666" points="202.55,-47.25 162.55,-47.25 162.55,-28 202.55,-28 202.55,-47.25"/>
<text xml:space="preserve" text-anchor="middle" x="182.55" y="-33.75" font-family="Helvetica,sans-Serif" font-size="10.00">mean</text>
</a>
</g>
</g>
<!-- Node1&#45;&gt;Node2 -->
<g id="edge1_Node000001_Node000002" class="edge">
<title>Node1&#45;&gt;Node2</title>
<g id="a_edge1_Node000001_Node000002"><a xlink:title=" ">
<path fill="none" stroke="#63b8ff" d="M62.13,-43.22C80.71,-45.98 104.99,-48.38 126.55,-46.62 134.58,-45.97 143.21,-44.79 151.2,-43.49"/>
<polygon fill="#63b8ff" stroke="#63b8ff" points="151.56,-46.99 160.81,-41.82 150.36,-40.09 151.56,-46.99"/>
</a>
</g>
</g>
<!-- Node3 -->
<g id="Node000003" class="node">
<title>Node3</title>
<g id="a_Node000003"><a xlink:href="std__libraries_8cc.html#a65cb5d525370b5795dd31644614e6fa0" target="_top" xlink:title="Standard deviation implementation.">
<polygon fill="white" stroke="#666666" points="126.55,-19.25 97.75,-19.25 97.75,0 126.55,0 126.55,-19.25"/>
<text xml:space="preserve" text-anchor="middle" x="112.15" y="-5.75" font-family="Helvetica,sans-Serif" font-size="10.00">sd</text>
</a>
</g>
</g>
<!-- Node1&#45;&gt;Node3 -->
<g id="edge3_Node000001_Node000003" class="edge">
<title>Node1&#45;&gt;Node3</title>
<g id="a_edge3_Node000001_Node000003"><a xlink:title=" ">
<path fill="none" stroke="#63b8ff" d="M60.5,-27.52C69.06,-24.49 78.36,-21.21 86.63,-18.28"/>
<polygon fill="#63b8ff" stroke="#63b8ff" points="87.76,-21.6 96.03,-14.97 85.43,-15 87.76,-21.6"/>
</a>
</g>
</g>
<!-- Node2&#45;&gt;Node2 -->
<g id="edge2_Node000002_Node000002" class="edge">
<title>Node2&#45;&gt;Node2</title>
<g id="a_edge2_Node000002_Node000002"><a xlink:title=" ">
<path fill="none" stroke="#63b8ff" d="M171.53,-47.54C166.5,-56.15 170.18,-65.25 182.55,-65.25 189.32,-65.25 193.48,-62.53 195.05,-58.65"/>
<polygon fill="#63b8ff" stroke="#63b8ff" points="198.56,-58.49 193.77,-49.04 191.62,-59.41 198.56,-58.49"/>
</a>
</g>
</g>
<!-- Node3&#45;&gt;Node2 -->
<g id="edge4_Node000003_Node000002" class="edge">
<title>Node3&#45;&gt;Node2</title>
<g id="a_edge4_Node000003_Node000002"><a xlink:title=" ">
<path fill="none" stroke="#63b8ff" d="M126.99,-15.29C134.13,-18.21 143.12,-21.9 151.74,-25.42"/>
<polygon fill="#63b8ff" stroke="#63b8ff" points="150.3,-28.62 160.89,-29.17 152.96,-22.14 150.3,-28.62"/>
</a>
</g>
</g>
<!-- Node3&#45;&gt;Node3 -->
<g id="edge5_Node000003_Node000003" class="edge">
<title>Node3&#45;&gt;Node3</title>
<g id="a_edge5_Node000003_Node000003"><a xlink:title=" ">
<path fill="none" stroke="#63b8ff" d="M101.13,-19.54C96.1,-28.15 99.78,-37.25 112.15,-37.25 118.92,-37.25 123.08,-34.53 124.65,-30.65"/>
<polygon fill="#63b8ff" stroke="#63b8ff" points="128.16,-30.49 123.37,-21.04 121.22,-31.41 128.16,-30.49"/>
</a>
</g>
</g>
</g>
</svg>
